<svg width="485" height="491" viewBox="0 0 485 491" fill="none" xmlns="http://www.w3.org/2000/svg">
<g clip-path="url(#clip0_1384_8110)">
<mask id="mask0_1384_8110" style="mask-type:luminance" maskUnits="userSpaceOnUse" x="355" y="264" width="131" height="129">
<path d="M420.933 264.315H419.688C384.272 264.315 355.562 293.025 355.562 328.44C355.562 363.855 384.272 392.565 419.688 392.565H420.933C456.348 392.565 485.058 363.855 485.058 328.44C485.058 293.025 456.348 264.315 420.933 264.315Z" fill="white"/>
</mask>
<g mask="url(#mask0_1384_8110)">
<path d="M420.933 264.315H419.688C384.272 264.315 355.562 293.025 355.562 328.44C355.562 363.855 384.272 392.565 419.688 392.565H420.933C456.348 392.565 485.058 363.855 485.058 328.44C485.058 293.025 456.348 264.315 420.933 264.315Z" fill="#8E8E8E"/>
</g>
<mask id="mask1_1384_8110" style="mask-type:luminance" maskUnits="userSpaceOnUse" x="355" y="264" width="131" height="129">
<path d="M420.937 264.18H419.691C384.276 264.18 355.566 292.889 355.566 328.305C355.566 363.72 384.276 392.43 419.691 392.43H420.937C456.352 392.43 485.062 363.72 485.062 328.305C485.062 292.889 456.352 264.18 420.937 264.18Z" fill="white"/>
</mask>
<g mask="url(#mask1_1384_8110)">
<path d="M385.074 390.717C385.074 380.3 393.522 371.854 403.931 371.854H435.779C446.194 371.854 454.641 380.3 454.641 390.717V403.492H385.074V390.717Z" fill="#656565"/>
</g>
<mask id="mask2_1384_8110" style="mask-type:luminance" maskUnits="userSpaceOnUse" x="355" y="264" width="131" height="129">
<path d="M420.929 264.197H419.684C384.268 264.197 355.559 292.907 355.559 328.322C355.559 363.737 384.268 392.447 419.684 392.447H420.929C456.344 392.447 485.054 363.737 485.054 328.322C485.054 292.907 456.344 264.197 420.929 264.197Z" fill="white"/>
</mask>
<g mask="url(#mask2_1384_8110)">
<path d="M433.37 374.063C432.816 368.529 427.835 369.42 427.835 369.42C427.835 369.42 423.167 369.883 419.858 369.883C416.551 369.883 411.886 369.42 411.886 369.42C411.886 369.42 406.905 368.529 406.351 374.063C405.507 382.462 408.98 393.347 408.98 393.347C408.98 393.347 415.925 389.473 419.858 385.653C423.796 389.473 430.74 393.347 430.74 393.347C430.74 393.347 434.211 382.462 433.37 374.063Z" fill="#F5F5F5"/>
</g>
<mask id="mask3_1384_8110" style="mask-type:luminance" maskUnits="userSpaceOnUse" x="355" y="264" width="131" height="129">
<path d="M420.937 264.229H419.691C384.276 264.229 355.566 292.939 355.566 328.354C355.566 363.77 384.276 392.479 419.691 392.479H420.937C456.352 392.479 485.062 363.77 485.062 328.354C485.062 292.939 456.352 264.229 420.937 264.229Z" fill="white"/>
</mask>
<g mask="url(#mask3_1384_8110)">
<path d="M428.712 374.975C428.712 379.87 424.747 383.84 419.853 383.84C414.958 383.84 410.996 379.87 410.996 374.975V357.89C410.996 352.994 414.958 349.024 419.853 349.024C424.747 349.024 428.712 352.994 428.712 357.89V374.975Z" fill="#E7E7E7"/>
</g>
<mask id="mask4_1384_8110" style="mask-type:luminance" maskUnits="userSpaceOnUse" x="355" y="264" width="131" height="129">
<path d="M420.96 264.297H419.715C384.3 264.297 355.59 293.007 355.59 328.422C355.59 363.837 384.3 392.547 419.715 392.547H420.96C456.376 392.547 485.085 363.837 485.085 328.422C485.085 293.007 456.376 264.297 420.96 264.297Z" fill="white"/>
</mask>
<g mask="url(#mask4_1384_8110)">
<path d="M393.807 331.527C395.148 338.522 391.854 345.038 386.458 346.065C381.06 347.107 375.607 342.265 374.266 335.257C372.929 328.268 376.225 321.752 381.614 320.724C387.017 319.696 392.474 324.531 393.807 331.527Z" fill="#E7E7E7"/>
</g>
<mask id="mask5_1384_8110" style="mask-type:luminance" maskUnits="userSpaceOnUse" x="355" y="264" width="131" height="129">
<path d="M420.96 264.307H419.715C384.3 264.307 355.59 293.016 355.59 328.432C355.59 363.847 384.3 392.557 419.715 392.557H420.96C456.376 392.557 485.085 363.847 485.085 328.432C485.085 293.016 456.376 264.307 420.96 264.307Z" fill="white"/>
</mask>
<g mask="url(#mask5_1384_8110)">
<path d="M390.907 332.091C391.849 337.019 389.537 341.591 385.739 342.311C381.949 343.035 378.109 339.633 377.169 334.719C376.233 329.799 378.54 325.22 382.337 324.498C386.131 323.767 389.968 327.175 390.907 332.091Z" fill="#D7D7D7"/>
</g>
<mask id="mask6_1384_8110" style="mask-type:luminance" maskUnits="userSpaceOnUse" x="355" y="264" width="131" height="129">
<path d="M420.906 264.297H419.66C384.245 264.297 355.535 293.007 355.535 328.422C355.535 363.837 384.245 392.547 419.66 392.547H420.906C456.321 392.547 485.031 363.837 485.031 328.422C485.031 293.007 456.321 264.297 420.906 264.297Z" fill="white"/>
</mask>
<g mask="url(#mask6_1384_8110)">
<path d="M445.909 331.527C444.568 338.522 447.855 345.038 453.257 346.065C458.653 347.107 464.11 342.265 465.45 335.257C466.782 328.268 463.491 321.752 458.099 320.724C452.7 319.696 447.246 324.531 445.909 331.527Z" fill="#E7E7E7"/>
</g>
<mask id="mask7_1384_8110" style="mask-type:luminance" maskUnits="userSpaceOnUse" x="355" y="264" width="131" height="129">
<path d="M420.906 264.307H419.66C384.245 264.307 355.535 293.016 355.535 328.432C355.535 363.847 384.245 392.557 419.66 392.557H420.906C456.321 392.557 485.031 363.847 485.031 328.432C485.031 293.016 456.321 264.307 420.906 264.307Z" fill="white"/>
</mask>
<g mask="url(#mask7_1384_8110)">
<path d="M448.809 332.091C447.864 337.019 450.18 341.591 453.974 342.311C457.764 343.035 461.604 339.633 462.541 334.719C463.483 329.799 461.169 325.22 457.378 324.498C453.582 323.767 449.745 327.175 448.809 332.091Z" fill="#D7D7D7"/>
</g>
<mask id="mask8_1384_8110" style="mask-type:luminance" maskUnits="userSpaceOnUse" x="355" y="264" width="131" height="129">
<path d="M420.929 264.318H419.684C384.268 264.318 355.559 293.028 355.559 328.443C355.559 363.858 384.268 392.568 419.684 392.568H420.929C456.344 392.568 485.054 363.858 485.054 328.443C485.054 293.028 456.344 264.318 420.929 264.318Z" fill="white"/>
</mask>
<g mask="url(#mask8_1384_8110)">
<path d="M456.329 327.356C456.329 351.044 440.002 370.255 419.857 370.255C399.721 370.255 383.391 351.044 383.391 327.356C383.391 303.665 399.721 284.462 419.857 284.462C440.002 284.462 456.329 303.665 456.329 327.356Z" fill="#E7E7E7"/>
</g>
<mask id="mask9_1384_8110" style="mask-type:luminance" maskUnits="userSpaceOnUse" x="355" y="264" width="131" height="129">
<path d="M420.952 264.303H419.707C384.292 264.303 355.582 293.012 355.582 328.428C355.582 363.843 384.292 392.553 419.707 392.553H420.952C456.368 392.553 485.077 363.843 485.077 328.428C485.077 293.012 456.368 264.303 420.952 264.303Z" fill="white"/>
</mask>
<g mask="url(#mask9_1384_8110)">
<path d="M409.412 330.661C409.412 332.603 407.823 334.179 405.884 334.179C403.938 334.179 402.363 332.603 402.363 330.661C402.363 328.71 403.938 327.135 405.884 327.135C407.823 327.135 409.412 328.71 409.412 330.661Z" fill="#525252"/>
</g>
<mask id="mask10_1384_8110" style="mask-type:luminance" maskUnits="userSpaceOnUse" x="355" y="264" width="131" height="129">
<path d="M420.925 264.303H419.68C384.264 264.303 355.555 293.012 355.555 328.428C355.555 363.843 384.264 392.553 419.68 392.553H420.925C456.34 392.553 485.05 363.843 485.05 328.428C485.05 293.012 456.34 264.303 420.925 264.303Z" fill="white"/>
</mask>
<g mask="url(#mask10_1384_8110)">
<path d="M437.351 330.661C437.351 332.603 435.775 334.179 433.832 334.179C431.884 334.179 430.305 332.603 430.305 330.661C430.305 328.71 431.884 327.135 433.832 327.135C435.775 327.135 437.351 328.71 437.351 330.661Z" fill="#525252"/>
</g>
<mask id="mask11_1384_8110" style="mask-type:luminance" maskUnits="userSpaceOnUse" x="355" y="264" width="131" height="129">
<path d="M420.937 264.289H419.691C384.276 264.289 355.566 292.999 355.566 328.414C355.566 363.829 384.276 392.539 419.691 392.539H420.937C456.352 392.539 485.062 363.829 485.062 328.414C485.062 292.999 456.352 264.289 420.937 264.289Z" fill="white"/>
</mask>
<g mask="url(#mask11_1384_8110)">
<path d="M419.856 329.937C418.704 329.937 414.189 341.935 415.903 343.18C417.09 344.039 418.876 344.157 419.856 344.14C420.837 344.157 422.624 344.039 423.81 343.18C425.524 341.935 421.02 329.937 419.856 329.937Z" fill="#C2C2C2"/>
</g>
<mask id="mask12_1384_8110" style="mask-type:luminance" maskUnits="userSpaceOnUse" x="355" y="264" width="131" height="129">
<path d="M420.941 264.374H419.695C384.28 264.374 355.57 293.084 355.57 328.499C355.57 363.914 384.28 392.624 419.695 392.624H420.941C456.356 392.624 485.066 363.914 485.066 328.499C485.066 293.084 456.356 264.374 420.941 264.374Z" fill="white"/>
</mask>
<g mask="url(#mask12_1384_8110)">
<path d="M455.679 306.275C454.179 295.942 449.335 290.235 444.987 285.806C440.643 281.371 426.239 277.527 412.199 277.496C411.673 277.494 411.164 277.518 410.66 277.545C407.673 276.559 377.5 283.428 377.5 292.595C377.5 297.197 380.14 301.363 384.397 304.372C384.24 305.095 384.122 305.742 384.044 306.275C382.545 316.622 380.366 327.865 384.044 327.411C387.717 326.955 386.687 323.317 389.708 318.67C392.728 314.03 394.076 309.199 394.076 309.199C394.076 309.199 412.393 311.981 425.259 313.495C438.129 315.01 444.987 312.387 444.987 312.387C444.987 312.387 452.005 326.955 455.679 327.411C459.356 327.865 457.17 316.622 455.679 306.275Z" fill="#575757"/>
</g>
<mask id="mask13_1384_8110" style="mask-type:luminance" maskUnits="userSpaceOnUse" x="355" y="264" width="131" height="129">
<path d="M420.929 264.257H419.684C384.268 264.257 355.559 292.967 355.559 328.382C355.559 363.798 384.268 392.507 419.684 392.507H420.929C456.344 392.507 485.054 363.798 485.054 328.382C485.054 292.967 456.344 264.257 420.929 264.257Z" fill="white"/>
</mask>
<g mask="url(#mask13_1384_8110)">
<path d="M410.77 347.13C410.615 347.91 410.52 348.716 410.52 349.553C410.52 355.465 414.703 360.259 419.858 360.259C425.018 360.259 429.197 355.465 429.197 349.553C429.197 348.716 429.107 347.91 428.948 347.13H410.77Z" fill="#8F8F8F"/>
</g>
<path d="M292.549 135.438H152.482C145.956 135.438 140.671 140.726 140.671 147.249V152.895C135.086 154.475 126.297 156.207 117.605 154.844C118.353 160.586 129.515 170.53 140.671 172.696V223.472C140.671 229.994 145.956 235.285 152.482 235.285H292.549C299.074 235.285 304.364 229.994 304.364 223.472V147.249C304.364 140.726 299.074 135.438 292.549 135.438Z" fill="#757575"/>
<path d="M287.32 158.36H158.961V154.709H287.32V158.36Z" fill="#E0E0E0"/>
<path d="M287.32 177.577H158.961V173.927H287.32V177.577Z" fill="#E0E0E0"/>
<path d="M287.32 196.796H158.961V193.145H287.32V196.796Z" fill="#E0E0E0"/>
<path d="M287.32 216.013H158.961V212.363H287.32V216.013Z" fill="#E0E0E0"/>
<path d="M90.3008 78.3753C92.1172 76.6108 93.964 74.878 95.8426 73.1807" stroke="#E0E0E0" stroke-width="3.8" stroke-miterlimit="10" stroke-linecap="round"/>
<path fill-rule="evenodd" clip-rule="evenodd" d="M446.379 226.17C446.357 223.663 446.292 221.165 446.184 218.68L442.386 218.846C442.494 221.288 442.558 223.74 442.579 226.203L446.379 226.17ZM445.005 203.775C444.433 198.788 443.687 193.854 442.772 188.977L439.038 189.677C439.935 194.465 440.668 199.311 441.229 204.209L445.005 203.775ZM439.495 174.389C438.222 169.542 436.781 164.764 435.179 160.06L431.582 161.286C433.155 165.904 434.57 170.596 435.819 175.354L439.495 174.389ZM429.853 146.084C427.906 141.476 425.799 136.952 423.541 132.52L420.155 134.244C422.373 138.597 424.441 143.039 426.352 147.563L429.853 146.084ZM416.28 119.441C413.703 115.162 410.978 110.983 408.11 106.911L405.003 109.097C407.818 113.097 410.495 117.201 413.026 121.403L416.28 119.441ZM399.075 94.99C395.922 91.1223 392.635 87.3689 389.221 83.7368L386.451 86.3396C389.805 89.9067 393.033 93.5927 396.13 97.3906L399.075 94.99ZM378.597 73.2067C374.935 69.8246 371.152 66.5707 367.257 63.4522L364.882 66.4188C368.707 69.4813 372.422 72.6768 376.018 75.9983L378.597 73.2067ZM111.367 57.8611C109.484 59.2387 107.624 60.6469 105.789 62.0848L108.133 65.0759C109.935 63.6638 111.761 62.2809 113.61 60.9281L111.367 57.8611ZM355.256 54.5226C351.158 51.6928 346.954 49.0044 342.653 46.4644L340.721 49.7366C344.945 52.2307 349.073 54.8707 353.097 57.6495L355.256 54.5226ZM134.984 42.8797C130.88 45.1154 126.859 47.4836 122.926 49.9785L124.962 53.1872C128.824 50.7373 132.772 48.4119 136.802 46.2166L134.984 42.8797ZM329.51 39.3216C325.058 37.103 320.515 35.0374 315.89 33.1316L314.442 36.645C318.983 38.5162 323.444 40.5444 327.815 42.7227L329.51 39.3216ZM160.381 31.1647C156.011 32.8365 151.71 34.6495 147.486 36.5984L149.078 40.0489C153.225 38.1355 157.448 36.3553 161.738 34.7138L160.381 31.1647ZM301.866 27.9313C297.149 26.3713 292.358 24.9736 287.498 23.7446L286.566 27.4285C291.337 28.6352 296.042 30.0076 300.673 31.5392L301.866 27.9313ZM187.114 22.9397C182.554 24.015 178.051 25.2384 173.61 26.6046L174.727 30.2366C179.087 28.8952 183.509 27.694 187.986 26.6382L187.114 22.9397ZM272.882 20.5977C267.999 19.7273 263.057 19.0252 258.064 18.4975L257.665 22.2764C262.568 22.7947 267.42 23.4841 272.215 24.3387L272.882 20.5977ZM214.702 18.3495C210.032 18.8107 205.407 19.4242 200.832 20.1851L201.455 23.9336C205.948 23.1865 210.49 22.584 215.075 22.1311L214.702 18.3495ZM243.151 17.451C240.664 17.3642 238.167 17.3203 235.66 17.3203C233.318 17.3203 230.985 17.3586 228.662 17.4343L228.786 21.2323C231.067 21.1578 233.359 21.1203 235.66 21.1203C238.123 21.1203 240.576 21.1633 243.018 21.2488L243.151 17.451Z" fill="#E0E0E0"/>
<path d="M444.268 233.317C444.202 235.859 444.089 238.391 443.934 240.91" stroke="#E0E0E0" stroke-width="3.8" stroke-miterlimit="10" stroke-linecap="round"/>
<path d="M434.609 237.303L442.646 254.457L453.487 238.921L434.609 237.303Z" fill="#E0E0E0"/>
<path d="M180.577 428.824C178.129 428.154 175.697 427.441 173.285 426.686" stroke="#E0E0E0" stroke-width="3.8" stroke-miterlimit="10" stroke-linecap="round"/>
<path fill-rule="evenodd" clip-rule="evenodd" d="M159.153 419.878C156.764 418.924 154.397 417.928 152.053 416.889L150.513 420.363C152.9 421.421 155.312 422.437 157.745 423.407L159.153 419.878ZM138.213 410.124C133.676 407.693 129.241 405.096 124.914 402.345L122.876 405.551C127.281 408.353 131.797 410.997 136.417 413.472L138.213 410.124ZM112.232 393.598C108.111 390.525 104.108 387.302 100.232 383.936L97.7406 386.806C101.688 390.232 105.763 393.515 109.96 396.644L112.232 393.598ZM88.9798 373.412C85.3614 369.768 81.8776 365.989 78.5367 362.085L75.6495 364.556C79.0514 368.532 82.5987 372.378 86.2833 376.09L88.9798 373.412ZM68.9606 350.016C65.923 345.883 63.0354 341.631 60.3059 337.272L57.085 339.288C59.8647 343.728 62.8051 348.057 65.8983 352.267L68.9606 350.016ZM52.6232 323.919C50.2356 319.386 48.0115 314.754 45.9583 310.031L42.4733 311.545C44.5643 316.356 46.8296 321.073 49.2611 325.689L52.6232 323.919ZM40.3515 295.683C38.6699 290.853 37.1622 285.941 35.8361 280.956L32.1638 281.932C33.5145 287.01 35.05 292.013 36.7628 296.932L40.3515 295.683ZM32.4369 265.931C31.4976 260.913 30.7394 255.831 30.1694 250.692L26.3926 251.111C26.9731 256.344 27.7451 261.519 28.7018 266.63L32.4369 265.931ZM29.0384 235.325C28.9449 232.768 28.8977 230.198 28.8977 227.619C28.8977 225.278 28.9365 222.946 29.0137 220.624L25.2157 220.498C25.1373 222.862 25.0977 225.236 25.0977 227.619C25.0977 230.245 25.1457 232.86 25.241 235.464L29.0384 235.325ZM29.9448 206.667C30.1786 204.34 30.4511 202.024 30.7613 199.72L26.9953 199.213C26.6794 201.56 26.402 203.918 26.1638 206.288L29.9448 206.667Z" fill="#E0E0E0"/>
<path d="M30.1406 191.919C30.575 189.417 31.0541 186.928 31.5766 184.458" stroke="#E0E0E0" stroke-width="3.8" stroke-miterlimit="10" stroke-linecap="round"/>
<path d="M40.2695 189.399L34.845 171.248L21.8359 185.019L40.2695 189.399Z" fill="#E0E0E0"/>
<path d="M127.826 19.5125C124.739 19.5125 122.238 17.0093 122.238 13.9253C122.238 10.8382 124.739 8.33513 127.826 8.33513C130.911 8.33513 133.413 10.8382 133.413 13.9253C133.413 17.0093 130.911 19.5125 127.826 19.5125ZM141.776 16.7787V11.0699L137.495 11.3539C137.265 10.4859 136.92 9.66257 136.479 8.90412L139.709 6.07781L135.672 2.04233L132.846 5.27132C132.085 4.829 131.265 4.4832 130.395 4.25406L130.68 -0.0258789H124.971L125.256 4.25406C124.388 4.4832 123.565 4.829 122.806 5.27132L119.981 2.04233L115.943 6.07781L119.173 8.90412C118.731 9.66257 118.387 10.4859 118.156 11.3539L113.875 11.0699V16.7787L118.156 16.4937C118.387 17.3625 118.731 18.1848 119.173 18.9435L115.943 21.7707L119.981 25.8076L122.806 22.5776C123.565 23.0186 124.388 23.3629 125.256 23.5936L124.971 27.8748H130.68L130.395 23.5936C131.265 23.3629 132.085 23.0186 132.846 22.5776L135.672 25.8076L139.709 21.7707L136.479 18.9435C136.92 18.1848 137.265 17.3625 137.495 16.4937L141.776 16.7787Z" fill="#E0E0E0"/>
<path d="M414.449 455.585H406.275V447.412H402.044V455.585H393.871V459.817H402.044V467.99H406.275V459.817H414.449V455.585Z" fill="#E0E0E0"/>
<path d="M127.82 298.206H119.646V290.032H115.415V298.206H107.242V302.436H115.415V310.61H119.646V302.436H127.82V298.206Z" fill="#E0E0E0"/>
<path d="M346.212 45.5615H382.103C388.867 45.5615 394.352 51.0462 394.352 57.8127V74.1959C394.352 80.9611 388.867 86.4471 382.103 86.4471H379.306V97.4244L368.374 86.4471H346.212C339.446 86.4471 333.961 80.9611 333.961 74.1959V57.8127C333.961 51.0462 339.446 45.5615 346.212 45.5615Z" fill="#8E8E8E"/>
<path d="M352.611 27.4302H314.997C308.23 27.4302 302.746 32.916 302.746 39.6814V57.7896C302.746 64.5562 308.23 70.0408 314.997 70.0408H317.793V81.0178L328.724 70.0408H352.611C359.378 70.0408 364.864 64.5562 364.864 57.7896V39.6814C364.864 32.916 359.378 27.4302 352.611 27.4302Z" fill="#757575"/>
<path d="M323.423 48.747C323.423 51.4856 321.202 53.706 318.463 53.706C315.725 53.706 313.504 51.4856 313.504 48.747C313.504 46.0085 315.725 43.7881 318.463 43.7881C321.202 43.7881 323.423 46.0085 323.423 48.747Z" fill="#E0E0E0"/>
<path d="M338.762 48.747C338.762 51.4856 336.541 53.706 333.803 53.706C331.064 53.706 328.844 51.4856 328.844 48.747C328.844 46.0085 331.064 43.7881 333.803 43.7881C336.541 43.7881 338.762 46.0085 338.762 48.747Z" fill="#E0E0E0"/>
<path d="M354.085 48.747C354.085 51.4856 351.864 53.706 349.127 53.706C346.387 53.706 344.168 51.4856 344.168 48.747C344.168 46.0085 346.387 43.7881 349.127 43.7881C351.864 43.7881 354.085 46.0085 354.085 48.747Z" fill="#E0E0E0"/>
<mask id="mask14_1384_8110" style="mask-type:luminance" maskUnits="userSpaceOnUse" x="-1" y="32" width="134" height="134">
<path d="M132.941 98.5801C132.941 61.8531 103.168 32.0801 66.4414 32.0801C29.7145 32.0801 -0.0585938 61.8531 -0.0585938 98.5801C-0.0585938 135.307 29.7145 165.08 66.4414 165.08C103.168 165.08 132.941 135.307 132.941 98.5801Z" fill="white"/>
</mask>
<g mask="url(#mask14_1384_8110)">
<path d="M132.941 98.5792C132.941 135.307 103.167 165.08 66.4418 165.08C29.7153 165.08 -0.0585938 135.307 -0.0585938 98.5792C-0.0585938 61.8536 29.7153 32.0801 66.4418 32.0801C103.167 32.0801 132.941 61.8536 132.941 98.5792Z" fill="#D3D3D3"/>
</g>
<mask id="mask15_1384_8110" style="mask-type:luminance" maskUnits="userSpaceOnUse" x="-1" y="32" width="134" height="134">
<path d="M132.992 98.6099C132.992 61.8829 103.219 32.1099 66.4922 32.1099C29.7653 32.1099 -0.0078125 61.8829 -0.0078125 98.6099C-0.0078125 135.337 29.7653 165.11 66.4922 165.11C103.219 165.11 132.992 135.337 132.992 98.6099Z" fill="white"/>
</mask>
<g mask="url(#mask15_1384_8110)">
<path d="M19.3252 95.489C18.622 95.489 18.011 94.9694 17.9154 94.2551L15.0716 72.9178C14.9661 72.1399 15.5137 71.4237 16.2928 71.3194C17.0694 71.2151 17.7872 71.7622 17.8908 72.5417L20.7367 93.8789C20.8389 94.6568 20.2935 95.3731 19.5134 95.4776C19.45 95.4843 19.3866 95.489 19.3252 95.489Z" fill="#959595"/>
</g>
<mask id="mask16_1384_8110" style="mask-type:luminance" maskUnits="userSpaceOnUse" x="-1" y="32" width="134" height="134">
<path d="M132.895 98.6099C132.895 61.8829 103.121 32.1099 66.3945 32.1099C29.6676 32.1099 -0.105469 61.8829 -0.105469 98.6099C-0.105469 135.337 29.6676 165.11 66.3945 165.11C103.121 165.11 132.895 135.337 132.895 98.6099Z" fill="white"/>
</mask>
<g mask="url(#mask16_1384_8110)">
<path d="M113.303 95.489C114.006 95.489 114.616 94.9694 114.712 94.2551L117.556 72.9178C117.663 72.1399 117.113 71.4237 116.334 71.3194C115.558 71.2151 114.84 71.7622 114.737 72.5417L111.891 93.8789C111.789 94.6568 112.336 95.3731 113.115 95.4776C113.179 95.4843 113.241 95.489 113.303 95.489Z" fill="#959595"/>
</g>
<mask id="mask17_1384_8110" style="mask-type:luminance" maskUnits="userSpaceOnUse" x="-1" y="32" width="134" height="134">
<path d="M132.941 98.563C132.941 61.8361 103.168 32.063 66.4414 32.063C29.7145 32.063 -0.0585938 61.8361 -0.0585938 98.563C-0.0585938 135.29 29.7145 165.063 66.4414 165.063C103.168 165.063 132.941 135.29 132.941 98.563Z" fill="white"/>
</mask>
<g mask="url(#mask17_1384_8110)">
<path d="M112.453 102.225C112.453 120.877 97.3332 135.998 78.681 135.998H54.209C35.5574 135.998 20.4375 120.877 20.4375 102.225C20.4375 83.572 35.5574 68.4536 54.209 68.4536H78.681C97.3332 68.4536 112.453 83.572 112.453 102.225Z" fill="#959595"/>
</g>
<mask id="mask18_1384_8110" style="mask-type:luminance" maskUnits="userSpaceOnUse" x="-1" y="32" width="134" height="134">
<path d="M132.941 98.5757C132.941 61.8487 103.168 32.0757 66.4414 32.0757C29.7145 32.0757 -0.0585938 61.8487 -0.0585938 98.5757C-0.0585938 135.303 29.7145 165.076 66.4414 165.076C103.168 165.076 132.941 135.303 132.941 98.5757Z" fill="white"/>
</mask>
<g mask="url(#mask18_1384_8110)">
<path d="M102.255 100.39C102.255 110.332 94.1967 118.395 84.2494 118.395H48.6323C38.6828 118.395 30.625 110.332 30.625 100.39C30.625 90.448 38.6828 82.3862 48.6323 82.3862H84.2494C94.1967 82.3862 102.255 90.448 102.255 100.39Z" fill="#2F2F2F"/>
</g>
<mask id="mask19_1384_8110" style="mask-type:luminance" maskUnits="userSpaceOnUse" x="-1" y="32" width="134" height="134">
<path d="M132.922 98.5791C132.922 61.8522 103.149 32.0791 66.4219 32.0791C29.6949 32.0791 -0.078125 61.8522 -0.078125 98.5791C-0.078125 135.306 29.6949 165.079 66.4219 165.079C103.149 165.079 132.922 135.306 132.922 98.5791Z" fill="white"/>
</mask>
<g mask="url(#mask19_1384_8110)">
<path d="M89.2597 97.801C89.2597 100.226 87.2956 102.192 84.8698 102.192C82.4458 102.192 80.4766 100.226 80.4766 97.801C80.4766 95.3747 82.4458 93.4106 84.8698 93.4106C87.2956 93.4106 89.2597 95.3747 89.2597 97.801Z" fill="#E0E0E0"/>
</g>
<mask id="mask20_1384_8110" style="mask-type:luminance" maskUnits="userSpaceOnUse" x="-1" y="32" width="134" height="134">
<path d="M132.949 98.5791C132.949 61.8522 103.176 32.0791 66.4492 32.0791C29.7223 32.0791 -0.0507812 61.8522 -0.0507812 98.5791C-0.0507812 135.306 29.7223 165.079 66.4492 165.079C103.176 165.079 132.949 135.306 132.949 98.5791Z" fill="white"/>
</mask>
<g mask="url(#mask20_1384_8110)">
<path d="M52.4 97.801C52.4 100.226 50.4295 102.192 48.0055 102.192C45.5804 102.192 43.6172 100.226 43.6172 97.801C43.6172 95.3747 45.5804 93.4106 48.0055 93.4106C50.4295 93.4106 52.4 95.3747 52.4 97.801Z" fill="#E0E0E0"/>
</g>
<mask id="mask21_1384_8110" style="mask-type:luminance" maskUnits="userSpaceOnUse" x="-1" y="32" width="134" height="134">
<path d="M132.941 98.5571C132.941 61.8302 103.168 32.0571 66.4414 32.0571C29.7145 32.0571 -0.0585938 61.8302 -0.0585938 98.5571C-0.0585938 135.284 29.7145 165.057 66.4414 165.057C103.168 165.057 132.941 135.284 132.941 98.5571Z" fill="white"/>
</mask>
<g mask="url(#mask21_1384_8110)">
<path d="M58.4375 102.514C58.7535 109.08 62.219 114.256 66.4459 114.256C70.6721 114.256 74.1397 109.08 74.4535 102.514H58.4375Z" fill="#E0E0E0"/>
</g>
<mask id="mask22_1384_8110" style="mask-type:luminance" maskUnits="userSpaceOnUse" x="-1" y="31" width="134" height="134">
<path d="M132.941 98.4458C132.941 61.7189 103.168 31.9458 66.4414 31.9458C29.7145 31.9458 -0.0585938 61.7189 -0.0585938 98.4458C-0.0585938 135.173 29.7145 164.946 66.4414 164.946C103.168 164.946 132.941 135.173 132.941 98.4458Z" fill="white"/>
</mask>
<g mask="url(#mask22_1384_8110)">
<path d="M102.255 163.242C102.255 152.517 93.5608 143.823 82.8357 143.823H50.0433C39.3184 143.823 30.625 152.517 30.625 163.242V176.401H102.255V163.242Z" fill="#959595"/>
</g>
<mask id="mask23_1384_8110" style="mask-type:luminance" maskUnits="userSpaceOnUse" x="-1" y="31" width="134" height="134">
<path d="M132.941 98.4893C132.941 61.7623 103.168 31.9893 66.4414 31.9893C29.7145 31.9893 -0.0585938 61.7623 -0.0585938 98.4893C-0.0585938 135.216 29.7145 164.989 66.4414 164.989C103.168 164.989 132.941 135.216 132.941 98.4893Z" fill="white"/>
</mask>
<g mask="url(#mask23_1384_8110)">
<path d="M77.735 142.199H55.1523V137.59H77.735V142.199Z" fill="#2F2F2F"/>
</g>
<mask id="mask24_1384_8110" style="mask-type:luminance" maskUnits="userSpaceOnUse" x="-1" y="32" width="134" height="134">
<path d="M132.988 98.563C132.988 61.8361 103.215 32.063 66.4883 32.063C29.7613 32.063 -0.0117188 61.8361 -0.0117188 98.563C-0.0117188 135.29 29.7613 165.063 66.4883 165.063C103.215 165.063 132.988 135.29 132.988 98.563Z" fill="white"/>
</mask>
<g mask="url(#mask24_1384_8110)">
<path d="M12.3789 102.224C12.3789 110.797 17.8003 117.874 24.825 118.966V85.4849C17.8003 86.5772 12.3789 93.6526 12.3789 102.224Z" fill="#2F2F2F"/>
</g>
<mask id="mask25_1384_8110" style="mask-type:luminance" maskUnits="userSpaceOnUse" x="-1" y="32" width="134" height="134">
<path d="M132.988 98.6548C132.988 61.9279 103.215 32.1548 66.4883 32.1548C29.7613 32.1548 -0.0117188 61.9279 -0.0117188 98.6548C-0.0117188 135.382 29.7613 165.155 66.4883 165.155C103.215 165.155 132.988 135.382 132.988 98.6548Z" fill="white"/>
</mask>
<g mask="url(#mask25_1384_8110)">
<path d="M11.9141 71.197C11.9141 68.6773 13.9573 66.6328 16.4781 66.6328L11.9141 71.197Z" fill="#2F2F2F"/>
</g>
<mask id="mask26_1384_8110" style="mask-type:luminance" maskUnits="userSpaceOnUse" x="-1" y="32" width="134" height="134">
<path d="M132.887 98.563C132.887 61.8361 103.114 32.063 66.3867 32.063C29.6598 32.063 -0.113281 61.8361 -0.113281 98.563C-0.113281 135.29 29.6598 165.063 66.3867 165.063C103.114 165.063 132.887 135.29 132.887 98.563Z" fill="white"/>
</mask>
<g mask="url(#mask26_1384_8110)">
<path d="M120.24 102.224C120.24 110.797 114.819 117.874 107.793 118.966V85.4849C114.819 86.5772 120.24 93.6526 120.24 102.224Z" fill="#2F2F2F"/>
</g>
<mask id="mask27_1384_8110" style="mask-type:luminance" maskUnits="userSpaceOnUse" x="-1" y="32" width="134" height="134">
<path d="M132.988 98.6353C132.988 61.9083 103.215 32.1353 66.4883 32.1353C29.7613 32.1353 -0.0117188 61.9083 -0.0117188 98.6353C-0.0117188 135.362 29.7613 165.135 66.4883 165.135C103.215 165.135 132.988 135.362 132.988 98.6353Z" fill="white"/>
</mask>
<g mask="url(#mask27_1384_8110)">
<path d="M16.4781 66.6128C18.9989 66.6128 21.0421 68.6573 21.0421 71.1771C21.0421 73.6985 18.9989 75.7413 16.4781 75.7413C13.9573 75.7413 11.9141 73.6985 11.9141 71.1771" fill="#2F2F2F"/>
</g>
<mask id="mask28_1384_8110" style="mask-type:luminance" maskUnits="userSpaceOnUse" x="-1" y="32" width="134" height="134">
<path d="M132.887 98.6353C132.887 61.9083 103.114 32.1353 66.3867 32.1353C29.6598 32.1353 -0.113281 61.9083 -0.113281 98.6353C-0.113281 135.362 29.6598 165.135 66.3867 165.135C103.114 165.135 132.887 135.362 132.887 98.6353Z" fill="white"/>
</mask>
<g mask="url(#mask28_1384_8110)">
<path d="M111.574 71.1771C111.574 73.6985 113.618 75.7413 116.139 75.7413C118.66 75.7413 120.703 73.6985 120.703 71.1771C120.703 68.6573 118.66 66.6128 116.139 66.6128C113.618 66.6128 111.574 68.6573 111.574 71.1771Z" fill="#2F2F2F"/>
</g>
<mask id="mask29_1384_8110" style="mask-type:luminance" maskUnits="userSpaceOnUse" x="-1" y="32" width="134" height="134">
<path d="M132.961 98.5352C132.961 61.8082 103.188 32.0352 66.4609 32.0352C29.734 32.0352 -0.0390625 61.8082 -0.0390625 98.5352C-0.0390625 135.262 29.734 165.035 66.4609 165.035C103.188 165.035 132.961 135.262 132.961 98.5352Z" fill="white"/>
</mask>
<g mask="url(#mask29_1384_8110)">
<path d="M36.8077 124.253C35.4022 124.253 33.626 124.25 31.4657 124.239C23.8601 124.202 21.9716 114.629 21.8956 114.221C21.7513 113.449 22.2595 112.705 23.0306 112.56C23.8013 112.416 24.5466 112.923 24.6913 113.694C24.7148 113.81 26.2372 121.367 31.4804 121.393C37.9096 121.425 40.9112 121.393 40.9412 121.393C41.7358 121.393 42.3702 122.015 42.3802 122.8C42.3869 123.587 41.7571 124.229 40.9726 124.239C40.9525 124.239 39.609 124.253 36.8077 124.253Z" fill="#959595"/>
</g>
<mask id="mask30_1384_8110" style="mask-type:luminance" maskUnits="userSpaceOnUse" x="-1" y="32" width="134" height="134">
<path d="M132.961 98.5288C132.961 61.8019 103.188 32.0288 66.4609 32.0288C29.734 32.0288 -0.0390625 61.8019 -0.0390625 98.5288C-0.0390625 135.256 29.734 165.029 66.4609 165.029C103.188 165.029 132.961 135.256 132.961 98.5288Z" fill="white"/>
</mask>
<g mask="url(#mask30_1384_8110)">
<path d="M46.1672 122.824C46.1672 125.344 44.1239 127.389 41.6031 127.389C39.0824 127.389 37.0391 125.344 37.0391 122.824C37.0391 120.303 39.0824 118.26 41.6031 118.26C44.1239 118.26 46.1672 120.303 46.1672 122.824Z" fill="#2F2F2F"/>
</g>
<path d="M185.42 354.348H325.487C332.011 354.348 337.299 359.638 337.299 366.158V371.804C342.881 373.382 351.671 375.116 360.364 373.753C359.615 379.493 348.455 389.441 337.299 391.604V478.852C337.299 485.376 332.011 490.668 325.487 490.668H185.42C178.895 490.668 173.605 485.376 173.605 478.852V366.158C173.605 359.638 178.895 354.348 185.42 354.348Z" fill="#8E8E8E"/>
<path d="M190.648 376.286H319.007V372.638H190.648V376.286Z" fill="#E0E0E0"/>
<path d="M190.648 395.502H319.007V391.854H190.648V395.502Z" fill="#E0E0E0"/>
<path d="M190.648 414.724H319.007V411.074H190.648V414.724Z" fill="#E0E0E0"/>
<path d="M190.648 433.949H319.007V430.301H190.648V433.949Z" fill="#E0E0E0"/>
<path d="M190.648 453.171H319.007V449.521H190.648V453.171Z" fill="#E0E0E0"/>
<path d="M190.648 472.396H319.007V468.747H190.648V472.396Z" fill="#E0E0E0"/>
</g>
<defs>
<clipPath id="clip0_1384_8110">
<rect width="485" height="491" fill="white"/>
</clipPath>
</defs>
</svg>
