<svg width="17" height="18" viewBox="0 0 17 18" fill="none" xmlns="http://www.w3.org/2000/svg">
<!-- <path d="M0.796875 0H16.5469V18H0.796875V0Z" stroke="#E5E7EB"/> -->
<g clip-path="url(#clip0_1382_8102)">
<path d="M16.2164 9.79473C16.6559 9.35527 16.6559 8.6416 16.2164 8.20215L10.5914 2.57715C10.152 2.1377 9.43828 2.1377 8.99883 2.57715C8.55938 3.0166 8.55938 3.73027 8.99883 4.16973L12.7078 7.8752H1.92188C1.29961 7.8752 0.796875 8.37793 0.796875 9.0002C0.796875 9.62246 1.29961 10.1252 1.92188 10.1252H12.7043L9.00234 13.8307C8.56289 14.2701 8.56289 14.9838 9.00234 15.4232C9.4418 15.8627 10.1555 15.8627 10.5949 15.4232L16.2199 9.79824L16.2164 9.79473Z" fill="white"/>
</g>
<defs>
<clipPath id="clip0_1382_8102">
<path d="M0.796875 0H16.5469V18H0.796875V0Z" fill="white"/>
</clipPath>
</defs>
</svg>
