<svg width="60" height="60" viewBox="0 0 60 60" fill="none" xmlns="http://www.w3.org/2000/svg">
<g clip-path="url(#clip0_1369_7685)">
<g clip-path="url(#clip1_1369_7685)">
<path d="M21.5625 0C25.1836 0 28.125 2.94141 28.125 6.5625V53.4375C28.125 57.0586 25.1836 60 21.5625 60C18.1758 60 15.3867 57.4336 15.0352 54.1289C14.4258 54.293 13.7812 54.375 13.125 54.375C8.98828 54.375 5.625 51.0117 5.625 46.875C5.625 46.0078 5.77734 45.1641 6.04688 44.3906C2.50781 43.0547 0 39.6328 0 35.625C0 31.8867 2.19141 28.6523 5.36719 27.1523C4.34766 25.875 3.75 24.2578 3.75 22.5C3.75 18.9023 6.28125 15.9023 9.65625 15.1641C9.46875 14.5195 9.375 13.8281 9.375 13.125C9.375 9.62109 11.7891 6.66797 15.0352 5.84766C15.3867 2.56641 18.1758 0 21.5625 0ZM38.4375 0C41.8242 0 44.6016 2.56641 44.9648 5.84766C48.2227 6.66797 50.625 9.60938 50.625 13.125C50.625 13.8281 50.5312 14.5195 50.3438 15.1641C53.7188 15.8906 56.25 18.9023 56.25 22.5C56.25 24.2578 55.6523 25.875 54.6328 27.1523C57.8086 28.6523 60 31.8867 60 35.625C60 39.6328 57.4922 43.0547 53.9531 44.3906C54.2227 45.1641 54.375 46.0078 54.375 46.875C54.375 51.0117 51.0117 54.375 46.875 54.375C46.2188 54.375 45.5742 54.293 44.9648 54.1289C44.6133 57.4336 41.8242 60 38.4375 60C34.8164 60 31.875 57.0586 31.875 53.4375V6.5625C31.875 2.94141 34.8164 0 38.4375 0Z" fill="#A3A3A3"/>
</g>
</g>
<defs>
<clipPath id="clip0_1369_7685">
<rect width="60" height="60" fill="white"/>
</clipPath>
<clipPath id="clip1_1369_7685">
<path d="M0 0H60V60H0V0Z" fill="white"/>
</clipPath>
</defs>
</svg>
