<svg width="25" height="24" viewBox="0 0 25 24" fill="none" xmlns="http://www.w3.org/2000/svg">
<g clip-path="url(#clip0_1369_7699)">
<g clip-path="url(#clip1_1369_7699)">
<path d="M3.1875 3C3.1875 2.17031 2.51719 1.5 1.6875 1.5C0.857812 1.5 0.1875 2.17031 0.1875 3V18.75C0.1875 20.8219 1.86562 22.5 3.9375 22.5H22.6875C23.5172 22.5 24.1875 21.8297 24.1875 21C24.1875 20.1703 23.5172 19.5 22.6875 19.5H3.9375C3.525 19.5 3.1875 19.1625 3.1875 18.75V3ZM22.2469 7.05938C22.8328 6.47344 22.8328 5.52188 22.2469 4.93594C21.6609 4.35 20.7094 4.35 20.1234 4.93594L15.1875 9.87656L12.4969 7.18594C11.9109 6.6 10.9594 6.6 10.3734 7.18594L5.12344 12.4359C4.5375 13.0219 4.5375 13.9734 5.12344 14.5594C5.70938 15.1453 6.66094 15.1453 7.24688 14.5594L11.4375 10.3734L14.1281 13.0641C14.7141 13.65 15.6656 13.65 16.2516 13.0641L22.2516 7.06406L22.2469 7.05938Z" fill="#404040"/>
</g>
</g>
<defs>
<clipPath id="clip0_1369_7699">
<rect width="24" height="24" fill="white" transform="translate(0.1875)"/>
</clipPath>
<clipPath id="clip1_1369_7699">
<path d="M0.1875 0H24.1875V24H0.1875V0Z" fill="white"/>
</clipPath>
</defs>
</svg>
