<svg width="27" height="30" viewBox="0 0 27 30" fill="none" xmlns="http://www.w3.org/2000/svg">
<g clip-path="url(#clip0_1369_7710)">
<path d="M20.4712 2.61332C20.8169 1.81059 20.5591 0.873089 19.8501 0.357464C19.1411 -0.158161 18.1743 -0.111286 17.5122 0.462932L2.51219 13.5879C1.92626 14.1036 1.71532 14.9297 1.99071 15.6563C2.2661 16.3829 2.96923 16.875 3.74852 16.875H10.2817L5.77587 27.3868C5.43016 28.1895 5.68798 29.127 6.39696 29.6426C7.10594 30.1582 8.07274 30.1114 8.73485 29.5372L23.7348 16.4122C24.3208 15.8965 24.5317 15.0704 24.2563 14.3438C23.9809 13.6172 23.2837 13.1309 22.4985 13.1309H15.9653L20.4712 2.61332Z" fill="#262626"/>
</g>
<defs>
<clipPath id="clip0_1369_7710">
<path d="M0 0H26.25V30H0V0Z" fill="white"/>
</clipPath>
</defs>
</svg>
